<?xml version="1.0" encoding="iso-8859-1"?>
<!-- Generator: Adobe Illustrator 17.1.0, SVG Export Plug-In . SVG Version: 6.00 Build 0)  -->
<!DOCTYPE svg PUBLIC "-//W3C//DTD SVG 1.1//EN" "http://www.w3.org/Graphics/SVG/1.1/DTD/svg11.dtd">
<svg version="1.1" id="Capa_1" xmlns="http://www.w3.org/2000/svg" xmlns:xlink="http://www.w3.org/1999/xlink" x="0px" y="0px"
	 viewBox="0 0 421.955 421.955" style="enable-background:new 0 0 421.955 421.955;" stroke="white" xml:space="preserve">
<path stroke="white" d="M280.217,255.96c3.139,0,6.188-1.646,7.843-4.573c2.446-4.327,0.921-9.817-3.406-12.264l-31.879-18.021l-6.093-18.305
	c-5.708-17.144-14.46-38.152-31.614-48.522c-0.051-0.031-0.104-0.054-0.156-0.084c-0.156-0.09-0.314-0.175-0.475-0.255
	c-0.109-0.055-0.218-0.108-0.328-0.158c-0.155-0.07-0.313-0.134-0.472-0.195c-0.125-0.048-0.249-0.095-0.374-0.137
	c-0.145-0.049-0.291-0.091-0.438-0.132c-0.146-0.041-0.291-0.079-0.438-0.112c-0.131-0.029-0.263-0.054-0.396-0.077
	c-0.167-0.03-0.333-0.057-0.5-0.077c-0.121-0.014-0.242-0.024-0.365-0.034c-0.18-0.015-0.359-0.024-0.539-0.027
	c-0.059-0.001-0.116-0.009-0.176-0.009c-0.065,0-0.127,0.009-0.192,0.01c-0.17,0.004-0.339,0.012-0.508,0.025
	c-0.14,0.011-0.28,0.024-0.418,0.041c-0.141,0.019-0.281,0.04-0.422,0.064c-0.159,0.027-0.317,0.058-0.473,0.094
	c-0.118,0.026-0.235,0.059-0.352,0.09c-0.168,0.046-0.334,0.094-0.498,0.148c-0.11,0.037-0.218,0.078-0.327,0.119
	c-0.16,0.062-0.32,0.123-0.475,0.193c-0.117,0.052-0.231,0.109-0.345,0.166c-0.139,0.069-0.277,0.139-0.412,0.215
	c-0.129,0.073-0.254,0.152-0.379,0.231c-0.115,0.072-0.229,0.144-0.34,0.221c-0.134,0.094-0.263,0.193-0.393,0.294
	c-0.098,0.076-0.195,0.152-0.289,0.232c-0.127,0.107-0.249,0.221-0.37,0.336c-0.092,0.088-0.183,0.176-0.272,0.267
	c-0.108,0.112-0.213,0.229-0.316,0.348c-0.096,0.11-0.189,0.221-0.28,0.336c-0.085,0.107-0.167,0.218-0.248,0.331
	c-0.099,0.139-0.194,0.279-0.286,0.423c-0.034,0.055-0.074,0.104-0.108,0.159c-0.031,0.051-0.054,0.104-0.084,0.156
	c-0.09,0.154-0.174,0.313-0.255,0.474c-0.055,0.11-0.109,0.22-0.159,0.331c-0.069,0.153-0.132,0.309-0.193,0.466
	c-0.049,0.127-0.096,0.253-0.139,0.38c-0.047,0.143-0.089,0.287-0.13,0.433c-0.041,0.147-0.081,0.296-0.114,0.444
	c-0.029,0.129-0.053,0.259-0.076,0.389c-0.03,0.17-0.057,0.338-0.077,0.508c-0.014,0.118-0.024,0.237-0.034,0.357
	c-0.015,0.183-0.024,0.364-0.028,0.547c-0.001,0.058-0.009,0.114-0.009,0.172v21.141h-41.629v-21.142
	c0-0.047-0.006-0.092-0.007-0.139c-0.003-0.207-0.014-0.413-0.031-0.62c-0.008-0.096-0.016-0.191-0.027-0.286
	c-0.023-0.194-0.053-0.388-0.089-0.581c-0.019-0.106-0.039-0.213-0.062-0.317c-0.038-0.173-0.084-0.345-0.133-0.517
	c-0.034-0.121-0.069-0.241-0.108-0.36c-0.05-0.15-0.106-0.3-0.164-0.448c-0.053-0.135-0.106-0.268-0.165-0.399
	c-0.059-0.132-0.123-0.263-0.19-0.394c-0.071-0.139-0.144-0.276-0.221-0.411c-0.035-0.061-0.063-0.123-0.099-0.184
	c-0.04-0.065-0.086-0.125-0.128-0.189c-0.079-0.123-0.16-0.243-0.245-0.362c-0.094-0.133-0.191-0.263-0.291-0.389
	c-0.074-0.094-0.151-0.185-0.229-0.275c-0.12-0.139-0.241-0.275-0.368-0.405c-0.069-0.07-0.139-0.138-0.21-0.206
	c-0.141-0.136-0.285-0.269-0.433-0.395c-0.071-0.06-0.145-0.116-0.218-0.174c-0.152-0.121-0.306-0.238-0.465-0.348
	c-0.086-0.06-0.174-0.115-0.262-0.171c-0.151-0.097-0.302-0.191-0.458-0.278c-0.109-0.062-0.22-0.117-0.332-0.174
	c-0.141-0.071-0.282-0.142-0.427-0.205c-0.13-0.058-0.263-0.109-0.397-0.161c-0.135-0.052-0.27-0.104-0.406-0.148
	c-0.14-0.047-0.282-0.087-0.425-0.127c-0.141-0.039-0.282-0.076-0.425-0.108c-0.135-0.031-0.272-0.057-0.409-0.081
	c-0.161-0.028-0.322-0.054-0.484-0.074c-0.121-0.015-0.242-0.025-0.365-0.035c-0.186-0.016-0.371-0.024-0.558-0.028
	c-0.057-0.001-0.112-0.009-0.169-0.009c-0.052,0-0.103,0.007-0.155,0.008c-0.192,0.003-0.384,0.014-0.577,0.029
	c-0.112,0.009-0.223,0.019-0.334,0.031c-0.175,0.021-0.349,0.049-0.524,0.08c-0.127,0.022-0.254,0.046-0.379,0.074
	c-0.149,0.033-0.298,0.073-0.446,0.114c-0.147,0.041-0.293,0.084-0.437,0.132c-0.123,0.041-0.244,0.087-0.366,0.134
	c-0.165,0.063-0.327,0.129-0.487,0.202c-0.103,0.046-0.204,0.096-0.305,0.146c-0.172,0.086-0.34,0.176-0.506,0.271
	c-0.046,0.027-0.094,0.048-0.139,0.075c-17.157,10.371-25.909,31.38-31.617,48.523l-24.707,74.226L70.705,252.15
	c6.164-9.434,6.061-22.129-1.18-31.561l-5.97-7.773c-5.195-6.767-13.096-10.647-21.673-10.647c-6.058,0-11.793,1.944-16.585,5.625
	c-5.765,4.427-9.464,10.852-10.414,18.091c-0.951,7.24,0.964,14.402,5.392,20.167l5.968,7.771
	c5.195,6.768,13.095,10.648,21.673,10.649c0.001,0,0.002,0,0.002,0c2.938,0,5.796-0.467,8.511-1.357l29.407,38.297
	c0.015,0.02,0.03,0.039,0.045,0.059l10.102,13.156c1.772,2.308,4.443,3.519,7.146,3.519c1.912,0,3.84-0.606,5.475-1.861
	c3.942-3.027,4.685-8.678,1.657-12.62l-7.223-9.406l28.552-85.774c2.406-7.227,5.684-16.023,10.193-23.708v37.096l-12.365,136.58
	c-0.001,0.007-0.001,0.015-0.001,0.015l-0.009,0.103c-0.011,0.122-0.008,0.241-0.014,0.362c-0.008,0.149-0.023,0.298-0.023,0.449
	c0,0.018,0.002,0.035,0.003,0.053c0.001,0.179,0.015,0.354,0.027,0.529c0.008,0.126,0.01,0.254,0.023,0.378
	c0.019,0.175,0.05,0.345,0.079,0.517c0.021,0.124,0.035,0.251,0.061,0.373c0.031,0.15,0.075,0.295,0.114,0.441
	c0.037,0.142,0.069,0.284,0.112,0.422c0.038,0.118,0.085,0.232,0.127,0.349c0.058,0.16,0.113,0.322,0.179,0.478
	c0.04,0.093,0.088,0.181,0.131,0.271c0.081,0.173,0.16,0.347,0.252,0.514c0.043,0.079,0.095,0.153,0.14,0.231
	c0.101,0.17,0.2,0.342,0.311,0.505c0.058,0.085,0.124,0.164,0.184,0.247c0.109,0.148,0.216,0.299,0.333,0.44
	c0.083,0.1,0.175,0.191,0.262,0.288c0.105,0.115,0.206,0.234,0.317,0.345c0.113,0.112,0.235,0.215,0.353,0.32
	c0.095,0.086,0.186,0.176,0.285,0.257c0.135,0.11,0.279,0.211,0.42,0.314c0.092,0.066,0.179,0.138,0.273,0.201
	c0.141,0.095,0.29,0.179,0.437,0.266c0.104,0.062,0.204,0.128,0.311,0.186c0.131,0.07,0.269,0.13,0.404,0.194
	c0.13,0.063,0.258,0.13,0.392,0.186c0.113,0.047,0.23,0.084,0.346,0.127c0.164,0.061,0.327,0.124,0.495,0.176
	c0.096,0.029,0.196,0.049,0.293,0.075c0.192,0.052,0.384,0.104,0.582,0.144c0.096,0.019,0.195,0.028,0.292,0.045
	c0.202,0.033,0.403,0.066,0.609,0.086c0.014,0.001,0.028,0.005,0.042,0.006c0.276,0.025,0.55,0.038,0.822,0.038
	c0.007,0,0.014-0.001,0.021-0.001h13.359l15.014,35.575h-15.99c-4.971,0-9,4.029-9,9s4.029,9,9,9h59.626c4.971,0,9-4.029,9-9
	s-4.029-9-9-9h-16.017l15.024-35.575h13.376c0.007,0,0.014,0.001,0.021,0.001c0.272,0,0.546-0.013,0.822-0.038
	c0.014-0.001,0.028-0.005,0.042-0.006c0.206-0.02,0.407-0.053,0.609-0.086c0.097-0.017,0.196-0.026,0.292-0.045
	c0.197-0.039,0.388-0.092,0.581-0.144c0.098-0.025,0.198-0.046,0.295-0.075c0.168-0.052,0.331-0.115,0.495-0.177
	c0.115-0.042,0.233-0.079,0.345-0.126c0.135-0.057,0.263-0.123,0.394-0.186c0.135-0.064,0.272-0.124,0.403-0.194
	c0.106-0.058,0.207-0.124,0.311-0.186c0.147-0.087,0.296-0.171,0.437-0.266c0.093-0.063,0.18-0.134,0.271-0.2
	c0.143-0.104,0.287-0.204,0.423-0.316c0.098-0.08,0.188-0.169,0.281-0.253c0.12-0.106,0.242-0.21,0.356-0.323
	c0.111-0.11,0.212-0.229,0.317-0.345c0.087-0.097,0.179-0.188,0.262-0.288c0.117-0.142,0.224-0.292,0.333-0.44
	c0.061-0.083,0.127-0.162,0.184-0.247c0.11-0.161,0.208-0.331,0.308-0.5c0.047-0.08,0.099-0.156,0.144-0.237
	c0.092-0.167,0.171-0.342,0.252-0.515c0.042-0.091,0.09-0.178,0.129-0.269c0.067-0.157,0.122-0.32,0.181-0.482
	c0.042-0.114,0.089-0.228,0.126-0.345c0.043-0.138,0.075-0.28,0.112-0.422c0.039-0.146,0.082-0.292,0.114-0.441
	c0.025-0.121,0.04-0.247,0.06-0.371c0.029-0.172,0.061-0.344,0.079-0.52c0.013-0.123,0.015-0.249,0.023-0.374
	c0.011-0.177,0.026-0.353,0.027-0.532c0-0.018,0.003-0.035,0.003-0.053c0-0.151-0.015-0.3-0.023-0.449
	c-0.006-0.121-0.003-0.24-0.014-0.362l-0.009-0.096c0-0.007-0.001-0.015-0.002-0.021l-12.365-136.58v-37.096
	c4.509,7.685,7.786,16.481,10.192,23.707l7.187,21.592c0.704,2.116,2.169,3.896,4.11,4.993l34.896,19.726
	C277.195,255.584,278.716,255.96,280.217,255.96z M47.917,246.473c-2.939,0-5.636-1.316-7.398-3.611l-5.969-7.773
	c-1.499-1.951-2.146-4.387-1.82-6.859c0.324-2.473,1.578-4.66,3.53-6.158c2.046-1.571,4.187-1.901,5.622-1.901
	c2.938,0,5.635,1.315,7.396,3.61l5.969,7.772c3.118,4.061,2.351,9.901-1.71,13.02C51.491,246.143,49.353,246.473,47.917,246.473
	L47.917,246.473z M203.47,350.38c-0.014,0-0.028,0-0.042,0h-45.645c-0.034,0-0.068,0-0.102,0h-9.46l2.581-28.504h59.591
	l2.581,28.504H203.47z M201.411,201.118v21.025c0,0,0,0.016,0,0.022v0.096c0,0.121,0.013,0.238,0.018,0.357
	c0.006,0.151,0.004,0.302,0.018,0.454l7.315,80.803h-56.332l7.315-80.803c0.014-0.152,0.012-0.303,0.018-0.454
	c0.005-0.119,0.018-0.236,0.018-0.357v-0.096c0-0.007,0-0.015,0-0.015v-21.033H201.411z M180.585,390.386l-9.287-22.006h18.581
	L180.585,390.386z M168.28,238.15c0-4.971,4.029-9,9-9h6.633c4.971,0,9,4.029,9,9s-4.029,9-9,9h-6.633
	C172.31,247.15,168.28,243.121,168.28,238.15z M142.621,86.344v8.3c0,0.088,0.008,0.173,0.01,0.26
	c0.002,3.252,0.011,13.265,0.043,13.953c0.949,20.28,17.606,36.166,37.921,36.166c20.434,0,37.096-15.98,37.935-36.4
	c0.027-0.703,0.031-14.592,0.031-14.731c0-0.421-0.039-0.831-0.095-1.236v-6.147c13.551-4.565,23.007-16.6,23.007-30.532
	c0-15.401-11.609-28.333-27.136-31.658C210.423,10.345,196.712,0,180.446,0c-16.314,0-30.059,10.406-33.927,24.444
	c-15.327,3.504-26.459,16.211-26.459,31.53C120.061,69.671,129.332,81.645,142.621,86.344z M180.596,127.022
	c-10.521,0-19.164-8.104-19.899-18.536c5.412,0.991,12.03,1.49,19.846,1.49c7.867,0,14.522-0.504,19.953-1.509
	C199.774,118.915,191.15,127.022,180.596,127.022z M154.631,41.491c4.892-0.107,8.802-4.11,8.802-9.004
	c0-7.988,7.632-14.487,17.014-14.487c9.381,0,17.013,6.499,17.013,14.487c0,4.971,4.029,9,9,9c9.382,0,17.015,6.499,17.015,14.487
	c0,7.311-6.422,13.492-14.938,14.377c-4.586,0.478-8.069,4.342-8.069,8.952v10.699c-3.568,0.921-10.339,1.974-19.924,1.974
	c-9.584,0-16.354-1.053-19.922-1.974v-3.971c8.745-2.918,16.065-7.088,21.816-12.449c3.635-3.39,3.835-9.085,0.445-12.721
	c-3.389-3.636-9.085-3.835-12.721-0.445c-4.595,4.284-11,7.518-19.013,9.653c-7.562-1.527-13.088-7.367-13.088-14.096
	C138.061,48.189,145.494,41.692,154.631,41.491z M398.311,273.255h-13.165c3.994-6.157,6.325-13.489,6.325-21.359v-31.289
	c0-4.971-4.029-9-9-9h-60.724c-4.971,0-9,4.029-9,9v31.289c0,7.87,2.331,15.202,6.326,21.359h-50.051c-4.971,0-9,4.029-9,9
	s4.029,9,9,9h83.012c0.026,0,0.051,0.002,0.077,0.002s0.051-0.002,0.077-0.002h46.123c4.971,0,9-4.029,9-9
	S403.281,273.255,398.311,273.255z M330.747,251.896v-22.289h42.724v22.289c0,11.766-9.561,21.338-21.322,21.359h-0.079
	C340.309,273.233,330.747,263.661,330.747,251.896z M330.831,135.939c-1.186-9.497,2.408-18.888,9.86-25.763
	c3.651-3.37,9.348-3.143,12.717,0.511c3.371,3.653,3.142,9.348-0.512,12.718c-3.175,2.93-4.668,6.59-4.204,10.305
	c0.488,3.91,3.155,7.447,7.317,9.704c13.051,7.077,19.323,18.306,17.21,30.807c-2.127,12.585-12.864,23.567-24.975,25.545
	c-0.491,0.081-0.98,0.119-1.462,0.119c-4.332,0-8.15-3.136-8.871-7.55c-0.802-4.905,2.525-9.532,7.431-10.333
	c4.04-0.66,9.194-5.251,10.129-10.782c0.783-4.632-1.923-8.663-8.042-11.981C338.098,154.178,332.048,145.686,330.831,135.939z"/>
<g>
</g>
<g>
</g>
<g>
</g>
<g>
</g>
<g>
</g>
<g>
</g>
<g>
</g>
<g>
</g>
<g>
</g>
<g>
</g>
<g>
</g>
<g>
</g>
<g>
</g>
<g>
</g>
<g>
</g>
</svg>
