<?xml version="1.0" encoding="iso-8859-1"?>
<!-- Generator: Adobe Illustrator 19.0.0, SVG Export Plug-In . SVG Version: 6.00 Build 0)  -->
<svg version="1.1" id="Layer_1" xmlns="http://www.w3.org/2000/svg" xmlns:xlink="http://www.w3.org/1999/xlink" x="0px" y="0px"
	 viewBox="0 0 512 512" style="enable-background:new 0 0 512 512;" xml:space="preserve">
<g>
	<g>
		<path d="M204.492,58.988h-58.328c-11.887,0-21.557-9.715-21.557-21.657c0-11.941,9.671-21.657,21.557-21.657h20.279
			c4.329,0,7.837-3.508,7.837-7.837c0-4.329-3.508-7.837-7.837-7.837h-20.279c-20.528,0-37.231,16.746-37.231,37.33
			c0,20.585,16.702,37.329,37.231,37.329h58.328c9.26,0,16.794,7.57,16.794,16.876v16.045c0,4.329,3.508,7.837,7.837,7.837
			c4.329,0,7.837-3.508,7.837-7.837V91.537C236.959,73.589,222.395,58.988,204.492,58.988z"/>
	</g>
</g>
<g>
	<g>
		<path d="M201.158,0h-11.577c-4.329,0-7.837,3.508-7.837,7.837c0,4.329,3.508,7.837,7.837,7.837h11.577
			c4.255,0,7.717,3.462,7.717,7.717c-0.001,4.255-3.462,7.717-7.717,7.717h-25.163c-4.329,0-7.837,3.508-7.837,7.837
			s3.508,7.837,7.837,7.837h25.163c12.897,0,23.39-10.493,23.39-23.39C224.547,10.493,214.054,0,201.158,0z"/>
	</g>
</g>
<g>
	<g>
		<path d="M162.376,292.89c-22.666,0-41.106,18.49-41.106,41.219s18.439,41.219,41.106,41.219c4.329,0,7.837-3.508,7.837-7.837
			s-3.508-7.837-7.837-7.837c-14.024,0-25.433-11.46-25.433-25.546c0-14.085,11.409-25.546,25.433-25.546
			c14.025,0,25.435,11.46,25.435,25.546c0,4.329,3.508,7.837,7.837,7.837c4.329,0,7.837-3.508,7.837-7.837
			C203.484,311.381,185.044,292.89,162.376,292.89z"/>
	</g>
</g>
<g>
	<g>
		<path d="M441.113,318.694h-52.41c-4.329,0-7.837,3.508-7.837,7.837c0,4.329,3.508,7.837,7.837,7.837h20.525v6.792H367.7
			c-4.329,0-7.837,3.508-7.837,7.837c0,4.329,3.508,7.837,7.837,7.837h41.526v9.404h-30.8c-4.329,0-7.837,3.508-7.837,7.837
			c0,4.329,3.508,7.837,7.837,7.837h30.8v38.661c0,21.076-11.518,39.5-28.58,49.347H250.77c-17.062-9.847-28.58-28.272-28.58-49.347
			v-86.204h115.313h14.629c4.329,0,7.837-3.508,7.837-7.837c0-4.329-3.508-7.837-7.837-7.837h-14.629h-55.064l1.932-23.303
			c0.181-2.184-0.56-4.344-2.045-5.955c-1.484-1.612-3.575-2.53-5.766-2.53h-1.11l6.764-68.76h2.594
			c12.423,0,22.529-10.128,22.529-22.578v-11.793c0-12.45-10.106-22.579-22.529-22.579h-7.835v-10.836
			c0-12.45-10.106-22.578-22.529-22.578H70.306c-12.423,0-22.529,10.128-22.529,22.578v10.836h-7.835
			c-12.423,0-22.529,10.129-22.529,22.579v11.793c0,12.45,10.106,22.578,22.529,22.578h2.594l6.764,68.76h-1.109
			c-2.182,0-4.264,0.909-5.747,2.509c-1.483,1.599-2.233,3.745-2.068,5.919l6.784,89.521c0.309,4.087,3.717,7.245,7.815,7.245h4.671
			l9.79,99.536C70.577,503.245,80.216,512,91.855,512h318.539c15.849,0,28.743-12.895,28.743-28.744
			c0-7.354-5.984-13.338-13.339-13.338h-20.322c10.96-11.802,18.059-27.234,19.242-44.278h16.394
			c29.486,0,53.474-23.988,53.474-53.474C494.586,342.682,470.599,318.694,441.113,318.694z M239.489,318.694h-8.339
			c-1.261-5.652-3.182-11.057-5.706-16.114h15.267L239.489,318.694z M266.711,318.694h-11.503l1.221-16.114h11.617L266.711,318.694z
			 M39.944,202.473c-3.779,0-6.856-3.098-6.856-6.905v-11.793c0-3.809,3.075-6.906,6.856-6.906h54.097
			c4.329,0,7.837-3.508,7.837-7.837c0-4.329-3.508-7.837-7.837-7.837H63.452v-10.836c0-3.807,3.075-6.905,6.856-6.905h147.171
			c0.864,3.388,3.928,5.897,7.585,5.897h8.815c3.657,0,6.721-2.509,7.585-5.897h12.985c3.779,0,6.856,3.098,6.856,6.905v10.836
			H129.568c-4.329,0-7.837,3.508-7.837,7.837c0,4.329,3.508,7.837,7.837,7.837h155.24c3.779,0,6.856,3.098,6.856,6.906v11.793
			c0,3.808-3.075,6.905-6.856,6.905H39.944z M62.241,376.427l-5.595-73.847h9.785l5.595,73.847H62.241z M65.049,286.906
			l-6.764-68.76h208.179l-6.764,68.76h-44.899c-12.914-14.414-31.629-23.5-52.427-23.5c-20.796,0-39.511,9.085-52.425,23.5H65.049z
			 M214.981,318.694h-0.628c-4.329,0-7.837,3.508-7.837,7.837v40.151c-9.986,13.609-26.049,22.457-44.141,22.457
			c-30.226,0-54.816-24.686-54.816-55.03c0-30.344,24.591-55.03,54.816-55.03C187.272,279.08,208.325,295.833,214.981,318.694z
			 M105.942,376.427H87.746l-5.595-73.847h17.161c-4.741,9.5-7.424,20.204-7.424,31.53
			C91.887,349.967,97.119,364.619,105.942,376.427z M191.284,483.256c0,4.705,1.144,9.146,3.157,13.071H91.855
			c-3.54,0-6.472-2.675-6.821-6.224l-2.349-23.884h34.344c4.329,0,7.837-3.509,7.837-7.837c0-4.329-3.508-7.837-7.837-7.837H81.143
			L75.394,392.1h46.728c11.423,8.001,25.296,12.712,40.254,12.712s28.833-4.711,40.255-12.712h3.886v28.471
			c0,10.685,2.325,20.833,6.491,29.973h-60.452c-4.329,0-7.837,3.508-7.837,7.837c0,4.328,3.508,7.837,7.837,7.837h70.192
			c1.026,1.265,2.081,2.507,3.19,3.701h-21.315C197.268,469.919,191.284,475.902,191.284,483.256z M423.254,485.592
			c-1.103,6.096-6.45,10.734-12.86,10.734H220.029c-6.41,0-11.758-4.638-12.863-10.734H423.254z M441.113,409.968H424.9v-75.6
			h16.213c20.843,0,37.8,16.957,37.8,37.8C478.913,393.01,461.955,409.968,441.113,409.968z"/>
	</g>
</g>
<g>
</g>
<g>
</g>
<g>
</g>
<g>
</g>
<g>
</g>
<g>
</g>
<g>
</g>
<g>
</g>
<g>
</g>
<g>
</g>
<g>
</g>
<g>
</g>
<g>
</g>
<g>
</g>
<g>
</g>
</svg>
